<svg xmlns="http://www.w3.org/2000/svg" width="1200" height="750" viewBox="0 0 1200 750">
  <defs>
    <linearGradient id="bg" x1="0" y1="0" x2="1" y2="1">
      <stop offset="0" stop-color="#0B1220"/>
      <stop offset="1" stop-color="#111827"/>
    </linearGradient>
  </defs>
  <rect width="100%" height="100%" fill="url(#bg)"/>
  <!-- Topbar -->
  <rect x="40" y="40" width="1120" height="80" rx="12" fill="#0f172a" stroke="#1f2937"/>
  <rect x="70" y="62" width="180" height="36" rx="8" fill="#0b1324" stroke="#1e3a8a"/>
  <rect x="260" y="62" width="220" height="36" rx="8" fill="#111827"/>
  <rect x="500" y="62" width="180" height="36" rx="8" fill="#111827"/>
  <text x="72" y="102" fill="#93c5fd" font-size="22" font-family="ui-sans-serif,system-ui">
    POS – Transaction Management
  </text>

  <!-- Table container -->
  <rect x="40" y="140" width="1120" height="520" rx="14" fill="#0f172a" stroke="#1f2937"/>

  <!-- Header -->
  <rect x="56" y="164" width="1088" height="44" rx="8" fill="#111827"/>
  <g fill="#94a3b8">
    <rect x="72" y="176" width="140" height="20" rx="4"/>
    <rect x="232" y="176" width="120" height="20" rx="4"/>
    <rect x="372" y="176" width="140" height="20" rx="4"/>
    <rect x="532" y="176" width="140" height="20" rx="4"/>
    <rect x="692" y="176" width="140" height="20" rx="4"/>
    <rect x="852" y="176" width="140" height="20" rx="4"/>
    <rect x="1012" y="176" width="120" height="20" rx="4"/>
  </g>

  <!-- Rows -->
  <g fill="#0b1324" stroke="#1f2937">
    <rect x="56" y="218" width="1088" height="56" rx="10"/>
    <rect x="56" y="280" width="1088" height="56" rx="10"/>
    <rect x="56" y="342" width="1088" height="56" rx="10"/>
    <rect x="56" y="404" width="1088" height="56" rx="10"/>
    <rect x="56" y="466" width="1088" height="56" rx="10"/>
    <rect x="56" y="528" width="1088" height="56" rx="10"/>
  </g>

  <!-- Status pills -->
  <g>
    <rect x="960" y="234" width="100" height="24" rx="12" fill="#16a34a" fill-opacity="0.25" stroke="#16a34a"/>
    <rect x="960" y="296" width="100" height="24" rx="12" fill="#1d4ed8" fill-opacity="0.25" stroke="#1d4ed8"/>
    <rect x="960" y="358" width="100" height="24" rx="12" fill="#a855f7" fill-opacity="0.25" stroke="#a855f7"/>
  </g>

  <!-- Pagination -->
  <rect x="56" y="600" width="210" height="40" rx="10" fill="#0b1324" stroke="#1f2937"/>
  <rect x="974" y="600" width="170" height="40" rx="10" fill="#0b1324" stroke="#1f2937"/>
  <text x="72" y="626" fill="#94a3b8" font-size="18" font-family="ui-sans-serif,system-ui">Rows per page: 20</text>
  <text x="992" y="626" fill="#93c5fd" font-size="18" font-family="ui-sans-serif,system-ui">1 2 3 … 12 →</text>
</svg>
