<svg xmlns="http://www.w3.org/2000/svg" width="1200" height="750" viewBox="0 0 1200 750">
  <defs>
    <linearGradient id="bg2" x1="0" y1="0" x2="1" y2="1">
      <stop offset="0" stop-color="#0B1220"/>
      <stop offset="1" stop-color="#111827"/>
    </linearGradient>
  </defs>
  <rect width="100%" height="100%" fill="url(#bg2)"/>

  <!-- Topbar -->
  <rect x="40" y="40" width="1120" height="80" rx="12" fill="#0f172a" stroke="#1f2937"/>
  <rect x="70" y="62" width="220" height="36" rx="8" fill="#0b1324" stroke="#1e3a8a"/>
  <rect x="310" y="62" width="320" height="36" rx="8" fill="#111827"/>
  <text x="72" y="102" fill="#93c5fd" font-size="22" font-family="ui-sans-serif,system-ui">
    LMS – YouTube Style (Multi-tenant)
  </text>

  <!-- Sidebar -->
  <rect x="40" y="140" width="220" height="520" rx="14" fill="#0f172a" stroke="#1f2937"/>
  <g>
    <rect x="60" y="160" width="180" height="36" rx="8" fill="#111827"/>
    <rect x="60" y="206" width="180" height="36" rx="8" fill="#111827"/>
    <rect x="60" y="252" width="180" height="36" rx="8" fill="#111827"/>
    <rect x="60" y="298" width="180" height="36" rx="8" fill="#111827"/>
    <rect x="60" y="344" width="180" height="36" rx="8" fill="#111827"/>
  </g>

  <!-- Content area -->
  <rect x="280" y="140" width="880" height="520" rx="14" fill="#0f172a" stroke="#1f2937"/>

  <!-- Thumbnails grid -->
  <g fill="#0b1324" stroke="#1f2937">
    <rect x="300" y="160" width="260" height="150" rx="12"/>
    <rect x="590" y="160" width="260" height="150" rx="12"/>
    <rect x="880" y="160" width="260" height="150" rx="12"/>
    <rect x="300" y="330" width="260" height="150" rx="12"/>
    <rect x="590" y="330" width="260" height="150" rx="12"/>
    <rect x="880" y="330" width="260" height="150" rx="12"/>
  </g>

  <!-- Captions -->
  <g fill="#94a3b8">
    <rect x="300" y="318" width="180" height="10" rx="4"/>
    <rect x="590" y="318" width="180" height="10" rx="4"/>
    <rect x="880" y="318" width="180" height="10" rx="4"/>
    <rect x="300" y="488" width="180" height="10" rx="4"/>
    <rect x="590" y="488" width="180" height="10" rx="4"/>
    <rect x="880" y="488" width="180" height="10" rx="4"/>
  </g>
</svg>
